<?xml version="1.0" encoding="UTF-8" standalone="no"?>
<!-- Generator: Adobe Illustrator 18.0.0, SVG Export Plug-In . SVG Version: 6.00 Build 0)  -->

<svg
   xmlns:dc="http://purl.org/dc/elements/1.1/"
   xmlns:cc="http://creativecommons.org/ns#"
   xmlns:rdf="http://www.w3.org/1999/02/22-rdf-syntax-ns#"
   xmlns:svg="http://www.w3.org/2000/svg"
   xmlns="http://www.w3.org/2000/svg"
   xmlns:sodipodi="http://sodipodi.sourceforge.net/DTD/sodipodi-0.dtd"
   xmlns:inkscape="http://www.inkscape.org/namespaces/inkscape"
   version="1.1"
   id="Ebene_1"
   x="0px"
   y="0px"
   viewBox="0 0 899.99999 222"
   enable-background="new 0 0 396.7 97.2"
   xml:space="preserve"
   sodipodi:docname="clock_current_logo_900x150_centered.svg"
   width="900"
   height="222"
   inkscape:export-filename="/home/christian/work/clock/documentation/images/clock_current_logo_600x150_2.png"
   inkscape:export-xdpi="96"
   inkscape:export-ydpi="96"
   inkscape:version="0.92.2 2405546, 2018-03-11"><metadata
   id="metadata3807"><rdf:RDF><cc:Work
       rdf:about=""><dc:format>image/svg+xml</dc:format><dc:type
         rdf:resource="http://purl.org/dc/dcmitype/StillImage" /><dc:title></dc:title></cc:Work></rdf:RDF></metadata><defs
   id="defs3805" /><sodipodi:namedview
   pagecolor="#ffffff"
   bordercolor="#666666"
   borderopacity="1"
   objecttolerance="10"
   gridtolerance="10"
   guidetolerance="10"
   inkscape:pageopacity="0"
   inkscape:pageshadow="2"
   inkscape:window-width="1853"
   inkscape:window-height="1016"
   id="namedview3803"
   showgrid="false"
   fit-margin-top="0"
   fit-margin-left="0"
   fit-margin-right="0"
   fit-margin-bottom="0"
   inkscape:zoom="1.4856907"
   inkscape:cx="458.90692"
   inkscape:cy="91.986062"
   inkscape:window-x="1987"
   inkscape:window-y="27"
   inkscape:window-maximized="1"
   inkscape:current-layer="Ebene_1" />
<g
   id="g3800"
   transform="matrix(1.0005999,0,0,1.0024483,150,87.7409)"
   inkscape:export-xdpi="96"
   inkscape:export-ydpi="96">
	<path
   d="m 217.8174,23.737642 c 0,30.987209 25.24324,56.986232 56.38161,56.986232 31.28952,0 56.3816,-25.847866 56.3816,-56.986232 0,-31.2895228 -24.78977,-56.986232 -56.3816,-56.986232 -31.44068,0 -56.38161,25.8478663 -56.38161,56.986232 z"
   id="path3780"
   inkscape:export-xdpi="96"
   inkscape:export-ydpi="96"
   inkscape:connector-curvature="0"
   style="fill:#ffffff;stroke-width:1.51157117" />
	<g
   id="g3790"
   inkscape:export-xdpi="96"
   inkscape:export-ydpi="96"
   transform="matrix(1.5115712,0,0,1.5115712,0,-49.724716)">
		<path
   d="M 49,0 C 22,0 0,22 0,49 c 0,26.6 22,48.2 49,48.2 9.9,0 19.8,-3.3 28.1,-9.2 l 0.6,-0.4 v -17 l -2.6,2.6 C 67.7,80.6 58.1,84.8 48.6,84.8 29.4,84.8 13.1,68.2 13.1,48.6 13.1,29 29.2,12.4 48.3,12.4 58.1,12.4 67.9,16.6 75,24 l 2.6,2.7 V 9.7 L 77,9.2 C 68.7,3 59.5,0 49,0 Z"
   id="path3782"
   inkscape:connector-curvature="0"
   style="fill:#ffffff" />
		<polygon
   points="91.8,1.6 91.8,95.6 130,95.6 130,83.2 104.9,83.2 104.9,1.6 "
   id="polygon3784"
   style="fill:#ffffff" />
		<polygon
   points="327.8,95.6 340.9,95.6 340.9,55.5 341.9,54.5 378.1,95.1 378.6,95.6 396.7,95.6 351.1,45.5 395.5,1.6 377.6,1.6 340.9,38.4 340.9,1.6 327.8,1.6 "
   id="polygon3786"
   style="fill:#ffffff" />
		<path
   d="m 284.9,0 c -27,0 -49,22 -49,49 0,26.6 22,48.2 49,48.2 9.9,0 19.8,-3.3 28.1,-9.2 l 0.6,-0.4 v -17 l -2.6,2.6 c -7.4,7.4 -17,11.6 -26.5,11.6 -19.2,0 -35.5,-16.6 -35.5,-36.2 0,-19.6 16.1,-36.2 35.2,-36.2 9.8,0 19.6,4.2 26.7,11.6 l 2.6,2.7 V 9.7 L 313,9.2 C 304.7,3 295.5,0 284.9,0 Z"
   id="path3788"
   inkscape:connector-curvature="0"
   style="fill:#ffffff" />
	</g>
	<path
   d="M 115.03056,-14.958579 C 104.14725,-26.295363 88.880384,-33.24859 73.008887,-33.24859 c -30.684895,0 -55.474662,26.6036519 -55.474662,56.986232 0,30.231423 24.940924,56.986232 55.928133,56.986232 15.569183,0 30.684892,-7.255541 41.568202,-18.29001 V 81.47966 c -11.94141,8.615956 -26.452491,13.452983 -41.114731,13.452983 -38.847378,0 -71.6484723,-31.591837 -71.6484723,-70.590373 0,-39.452007 32.3476223,-71.799629 71.7996293,-71.799629 15.266869,0 28.871014,4.383556 41.114734,13.452983 v 19.045797 z m 41.2659,93.26394 h 37.94043 v 14.208768 h -53.2073 V -45.038845 h 15.26687 z m 315.4649,-93.26394 c -10.88332,-11.336784 -26.15018,-18.290011 -42.02168,-18.290011 -30.6849,0 -55.47466,26.6036519 -55.47466,56.986232 0,30.231423 24.94092,56.986232 55.92813,56.986232 15.56918,0 30.68489,-7.255541 41.56821,-18.29001 V 81.47966 c -11.79026,8.615956 -26.4525,13.452983 -41.11474,13.452983 -38.84738,0 -71.79963,-31.591837 -71.79963,-70.590373 0,-39.452007 32.34762,-71.799629 71.79963,-71.799629 15.26687,0 28.87101,4.383556 41.11474,13.452983 z m 99.91485,-30.080266 h 20.55737 l -64.69525,64.090616 66.81145,73.613516 h -21.162 l -56.3816,-63.183675 -3.77893,3.778928 V 92.665287 H 497.76038 V -45.038845 h 15.26687 V 13.91243 Z"
   id="path3792"
   inkscape:export-xdpi="96"
   inkscape:export-ydpi="96"
   inkscape:connector-curvature="0"
   style="fill:#1452a2;stroke-width:1.51157117" />
	<polygon
   points="162.6,62.5 177.9,47.1 177.9,19.6 184.9,19.6 184.9,50 167.5,67.5 "
   id="polygon3794"
   inkscape:export-xdpi="96"
   inkscape:export-ydpi="96"
   style="fill:#1452a2"
   transform="matrix(1.5115712,0,0,1.5115712,0,-49.724716)" />
	<polygon
   points="184.9,19.6 184.9,50 167.5,67.5 165.1,65 193,93 225.7,60.3 "
   id="polygon3796"
   inkscape:export-xdpi="96"
   inkscape:export-ydpi="96"
   style="opacity:0.15;fill:#1452a2"
   transform="matrix(1.5115712,0,0,1.5115712,0,-49.724716)" />
	<path
   d="m 345.99864,23.888799 c 0,39.603164 -32.49878,71.043844 -71.79963,71.043844 -39.30085,0 -71.79963,-31.44068 -71.79963,-71.043844 0,-39.452007 32.49878,-71.346158 71.79963,-71.346158 39.30085,0 71.79963,31.894151 71.79963,71.346158 z M 217.8174,23.737642 c 0,30.987209 25.24324,56.986232 56.38161,56.986232 31.28952,0 56.3816,-25.999023 56.3816,-56.986232 0,-31.2895228 -24.78977,-56.986232 -56.3816,-56.986232 -31.44068,0 -56.38161,25.8478663 -56.38161,56.986232 z"
   id="path3798"
   inkscape:export-xdpi="96"
   inkscape:export-ydpi="96"
   inkscape:connector-curvature="0"
   style="fill:#1452a2;stroke-width:1.51157117" />
</g>
</svg>